<svg width="43" height="32" viewBox="0 0 43 32" fill="none" xmlns="http://www.w3.org/2000/svg">
<path d="M16.1852 0C19.0416 0.538163 23.2228 1.80078 25.4996 2.54593C31.1917 4.51229 33.1374 6.95472 33.1374 12.4605C33.1374 17.8422 29.8256 19.8706 25.6031 17.8422V7.82406C25.6031 6.68564 25.3961 5.58862 24.2784 5.27814C23.4297 5.00906 22.933 5.7956 22.933 6.95472V32L16.1852 29.8474V0ZM24.1956 27.6326L35.0624 23.762C36.3043 23.3273 36.4906 22.7063 35.497 22.3752C34.4828 22.044 32.682 22.1475 31.4401 22.5821L24.1956 25.1281V21.0712L24.6303 20.9263C24.6303 20.9263 26.7208 20.1397 29.6393 19.8706C32.5992 19.5395 36.2008 19.912 39.0158 20.9677C42.2034 21.9819 42.5759 23.4722 41.7687 24.4864C40.9407 25.5213 38.9537 26.2458 38.9537 26.2458L24.1956 31.5239V27.6326ZM3.7661 27.2186C0.516422 26.3493 -0.0424396 24.3829 1.44786 23.2445C2.83466 22.2096 5.1736 21.4851 5.1736 21.4851L14.8605 18.0699V21.9612L7.90581 24.4657C6.6639 24.9004 6.47761 25.5213 7.47114 25.8525C8.46468 26.1837 10.2861 26.1009 11.5074 25.6455L14.8605 24.445V27.9431L14.1982 28.0673C10.845 28.6054 7.28486 28.4191 3.7661 27.2186Z" fill="white"/>
</svg>
