<svg width="32" height="32" viewBox="0 0 32 32" fill="none" xmlns="http://www.w3.org/2000/svg">
<path d="M18.901 32H23.802C28.302 32 32 28.302 32 23.802V8.198C32 3.698 28.302 0 23.802 0H18.802C18.703 0 18.599 0.099 18.599 0.198V31.802C18.599 31.901 18.698 32 18.901 32ZM25 14.401C26.802 14.401 28.198 15.901 28.198 17.599C28.198 19.401 26.698 20.797 25 20.797C23.198 20.797 21.802 19.401 21.802 17.599C21.698 15.802 23.198 14.401 25 14.401ZM15.198 0H8.198C3.698 0 0 3.698 0 8.198V23.802C0 28.302 3.698 32 8.198 32H15.198C15.297 32 15.401 31.901 15.401 31.802V0.198C15.401 0.099 15.302 0 15.198 0V0ZM12.901 29.401H8.198C5.099 29.401 2.599 26.901 2.599 23.802V8.198C2.599 5.099 5.099 2.599 8.198 2.599H12.802L12.901 29.401ZM5 9.599C5 11.297 6.302 12.599 8 12.599C9.698 12.599 11 11.297 11 9.599C11 7.901 9.698 6.599 8 6.599C6.302 6.599 5 7.901 5 9.599Z" fill="white"/>
</svg>
