<svg width="32" height="32" viewBox="0 0 32 32" fill="none" xmlns="http://www.w3.org/2000/svg">
<path d="M7.088 2.752C7.2 2.656 7.312 2.56 7.392 2.496C9.888 0.88 12.8 0 16 0C19.008 0 21.824 0.8 24.224 2.272C24.4 2.4 24.864 2.704 25.12 3.008C22.8 0.448 16 5.92 16 5.92C13.6 4.112 11.472 2.88 9.856 2.4C8.496 2.064 7.568 2.4 7.136 2.72M27.744 5.136C27.664 5.056 27.584 4.976 27.52 4.896C26.944 4.256 26.208 4.096 25.6 4.144C24.976 4.336 22.24 5.312 18.88 8.496C18.88 8.496 22.672 12.176 24.992 15.936C27.312 19.696 28.688 22.656 27.84 26.768C30.4 23.92 32 20.144 32 16C32 11.808 30.4 8 27.744 5.136ZM21.968 17.536C20.928 16.384 19.408 14.736 17.376 12.72C16.944 12.288 16.48 11.84 16 11.36C16 11.36 15.248 12.096 14.288 13.072C13.056 14.304 11.472 15.92 10.576 16.864C9.008 18.544 4.496 23.824 4.24 26.784C4.24 26.784 3.2 24.448 5.44 19.024C6.88 15.488 11.2 10.176 13.04 8.448C13.04 8.448 11.392 6.624 9.312 5.36L9.232 5.312C8.224 4.72 7.136 4.256 6.08 4.192C5.008 4.272 4.336 5.056 4.336 5.056C1.648 7.92 0 11.76 0 16C0 20.2435 1.68571 24.3131 4.68629 27.3137C7.68687 30.3143 11.7565 32 16 32C20.688 32 24.912 29.984 27.84 26.768C27.84 26.768 27.504 24.64 25.344 21.6C24.848 20.912 22.992 18.704 21.968 17.536Z" fill="white"/>
</svg>
