<svg width="37" height="36" viewBox="0 0 37 36" fill="none" xmlns="http://www.w3.org/2000/svg">
<path d="M10.3125 33.9375C11.4516 33.9375 12.375 33.0141 12.375 31.875C12.375 30.7359 11.4516 29.8125 10.3125 29.8125C9.17341 29.8125 8.25 30.7359 8.25 31.875C8.25 33.0141 9.17341 33.9375 10.3125 33.9375Z" fill="white"/>
<path d="M24.75 33.9375C25.8891 33.9375 26.8125 33.0141 26.8125 31.875C26.8125 30.7359 25.8891 29.8125 24.75 29.8125C23.6109 29.8125 22.6875 30.7359 22.6875 31.875C22.6875 33.0141 23.6109 33.9375 24.75 33.9375Z" fill="white"/>
<path d="M28.875 10.2188H6.00188L5.15625 5.88753C5.10804 5.65109 4.97844 5.43904 4.79001 5.2883C4.60158 5.13755 4.36626 5.05766 4.125 5.06253H0V7.12503H3.27938L7.21875 26.925C7.26696 27.1615 7.39656 27.3735 7.58499 27.5243C7.77342 27.675 8.00874 27.7549 8.25 27.75H26.8125V25.6875H9.09562L8.25 21.5625H26.8125C27.0509 21.5684 27.2839 21.4914 27.4719 21.3447C27.66 21.1981 27.7914 20.9908 27.8438 20.7582L29.9062 11.4769C29.9408 11.3239 29.94 11.165 29.9039 11.0124C29.8678 10.8597 29.7973 10.7173 29.6979 10.596C29.5985 10.4747 29.4726 10.3776 29.33 10.3123C29.1875 10.2469 29.0318 10.2149 28.875 10.2188ZM25.9875 19.5H7.85812L6.41437 12.2813H27.5859L25.9875 19.5Z" fill="white"/>
<rect x="16" width="21" height="21" rx="10.5" fill="#FF0B0B"/>
<path d="M22.8211 14.272V13.18H26.8811C27.1611 13.18 27.3011 13.04 27.3011 12.76V11.36C27.3011 11.08 27.1611 10.94 26.8811 10.94H23.8571V9.12H26.8811C27.1611 9.12 27.3011 8.98 27.3011 8.7V7.58C27.3011 7.3 27.1611 7.16 26.8811 7.16H22.9611V6.068L23.8991 5.34H26.9651C28.5331 5.34 29.3171 6.124 29.3171 7.692V8.588C29.3171 8.96133 29.2005 9.26467 28.9671 9.498L28.4771 9.988L28.9671 10.478C29.2005 10.7113 29.3171 11.0147 29.3171 11.388V12.648C29.3171 14.216 28.5331 15 26.9651 15H23.7591L22.8211 14.272Z" fill="white"/>
</svg>
